# xmcd
# 
# Track frame offsets:
#     183
#     20158
#     34558
#     49895
#     64460
#     80115
#     96938
#     114645
#     133153
#     149443
# 
# Disc length: 2277
# 
# Revision: 5
# Processed by: cddbd v1.5.2PL0 Copyright (c) Steve Scherf et al.
# Submitted via: fre:ac v1.0.17
# 
DISCID=9908e30a
DTITLE=Foreigner - Double Vision
DYEAR=1978
DGENRE=Rock
TTITLE0=Hot Blooded
TTITLE1=Blue Morning, Blue Day
TTITLE2=You're All I Am
TTITLE3=Back Where You Belong
TTITLE4=Love Has Taken Its Toll
TTITLE5=Double Vision
TTITLE6=Tramontane (Instrumental)
TTITLE7=I Have Waited So Long
TTITLE8=Lonely Children
TTITLE9=Spellbinder
EXTD=
EXTT0=
EXTT1=
EXTT2=
EXTT3=
EXTT4=
EXTT5=
EXTT6=
EXTT7=
EXTT8=
EXTT9=
PLAYORDER=
